<svg width="66" height="29" viewBox="0 0 66 29" fill="none" xmlns="http://www.w3.org/2000/svg">
<path d="M10.3117 16.1311C10.3117 13.0581 12.1382 10.9375 14.9001 10.9375C17.1631 10.9375 19.3014 12.3572 19.3014 15.9694V16.6702H12.2451C12.2986 18.5662 13.4033 19.6534 15.0427 19.6534C16.1564 19.6534 16.8691 19.1772 17.1988 18.5662H19.1678C18.7312 20.1835 17.1988 21.2708 15.016 21.2708C12.0936 21.2708 10.3028 19.2401 10.3028 16.1311H10.3117ZM17.3859 15.1876C17.3859 13.6601 16.4147 12.5549 14.9179 12.5549C13.4211 12.5549 12.3431 13.7679 12.2718 15.1876H17.3859Z" fill="black" fill-opacity="0.4"/>
<path d="M22.3033 21.0731H20.3521V11.0633H22.232V12.7076H22.339C22.8112 11.6384 23.7823 10.9375 25.2613 10.9375C27.3105 10.9375 28.638 12.2314 28.638 14.7114V21.0731H26.7046V14.954C26.7046 13.4984 25.9206 12.6358 24.602 12.6358C23.2834 12.6358 22.3033 13.5343 22.3033 15.1427V21.0731Z" fill="black" fill-opacity="0.4"/>
<path d="M34.7681 12.636H32.7367V18.1261C32.7367 19.2493 33.3069 19.4559 33.9217 19.4739C34.1979 19.4739 34.6345 19.438 34.9107 19.42V21.1362C34.6345 21.1722 34.2157 21.2081 33.6901 21.2081C32.1576 21.2081 30.7856 20.3635 30.8034 18.5394V12.645H29.3422V11.0815H30.8034V8.68237H32.7367V11.0815H34.7681V12.645V12.636Z" fill="black" fill-opacity="0.4"/>
<path d="M39.3474 15.2506C40.0067 15.2056 41.4946 15.1248 41.9579 15.1068L41.9401 14.3161C41.9401 13.1929 41.2629 12.528 39.9265 12.528C38.7772 12.528 38.0822 13.0581 37.8773 13.8039H35.944C36.1311 12.1416 37.6635 10.9465 39.9978 10.9465C41.5659 10.9465 43.8912 11.5396 43.8912 14.4329V21.0821H41.9935V19.7164H41.9222C41.5391 20.4711 40.6215 21.2978 38.9821 21.2978C37.1022 21.2978 35.6411 20.2106 35.6411 18.2607C35.6411 15.9784 37.5566 15.3854 39.3474 15.2596V15.2506ZM39.4187 19.7253C41.0046 19.7253 41.9579 18.6561 41.9579 17.461V16.5355C41.5035 16.5714 40.078 16.6703 39.6236 16.6972C38.3406 16.7871 37.5388 17.2723 37.5388 18.2607C37.5388 19.2491 38.3228 19.7164 39.4187 19.7164V19.7253Z" fill="black" fill-opacity="0.4"/>
<path d="M39.4016 23.581L54.5299 28.6578L65.6668 19.6274L52.7925 26.1868L39.4016 23.581Z" fill="black" fill-opacity="0.4"/>
<path d="M51.1706 0.560303L40.2476 7.16462L52.4536 3.98377L65.506 10.8127L51.1706 0.560303Z" fill="black" fill-opacity="0.4"/>
<path d="M0.333344 21.5146V7.90161H5.12665C6.13342 7.90161 6.97983 8.09031 7.68368 8.47668C8.37862 8.85407 8.90427 9.38421 9.25175 10.0402C9.59922 10.7051 9.7685 11.4599 9.7685 12.3135C9.7685 13.1671 9.59922 13.9309 9.25175 14.5958C8.90427 15.2607 8.37862 15.7819 7.68368 16.1682C6.98874 16.5546 6.13342 16.7433 5.11774 16.7433H1.82123V14.9822H4.91282C5.55431 14.9822 6.07997 14.8653 6.49871 14.6407C6.91746 14.4161 7.22038 14.1016 7.4253 13.7062C7.62131 13.3109 7.71932 12.8436 7.71932 12.3135C7.71932 11.7833 7.62131 11.3251 7.4253 10.9297C7.22929 10.5343 6.91746 10.2288 6.49871 10.0042C6.07997 9.77957 5.55431 9.67175 4.91282 9.67175H2.37362V21.5146H0.333344Z" fill="black" fill-opacity="0.4"/>
<path d="M54.3428 11.0914C54.2982 10.6421 54.1378 10.2648 53.8795 9.94127C53.6211 9.6178 53.2736 9.37519 52.8371 9.20447C52.4005 9.03374 51.9105 8.95287 51.3492 8.95287C50.7701 8.95287 50.2533 9.04273 49.8167 9.23142C49.3802 9.42012 49.0327 9.6807 48.8011 10.0132C48.5605 10.3456 48.4447 10.714 48.4447 11.1274C48.4447 11.7474 48.6852 12.2326 49.1931 12.565C49.692 12.8975 50.3246 13.1671 51.0908 13.3647L52.5074 13.7421C53.2558 13.9308 53.9329 14.1824 54.5388 14.4969C55.1446 14.8114 55.6525 15.2517 56.0712 15.8088C56.481 16.3749 56.686 17.0667 56.686 17.8934C56.686 18.7201 56.4721 19.4838 56.0445 20.1308C55.6168 20.7867 55.0021 21.2989 54.1913 21.6673C53.3805 22.0357 52.4183 22.2244 51.2957 22.2244C50.1731 22.2244 49.2733 22.0447 48.4714 21.6943C47.6696 21.3438 47.0459 20.8406 46.5915 20.1937C46.146 19.5467 45.8966 18.774 45.8431 17.8844H48.0616C48.1061 18.3966 48.2754 18.8369 48.5605 19.1873C48.8545 19.5467 49.2287 19.8073 49.7009 19.987C50.1731 20.1578 50.6988 20.2476 51.2779 20.2476C51.8926 20.2476 52.445 20.1488 52.9351 19.9511C53.4251 19.7534 53.7993 19.4749 54.0755 19.1154C54.3517 18.756 54.4853 18.3427 54.4853 17.8665C54.4853 17.4621 54.3695 17.1117 54.1378 16.8331C53.9062 16.5546 53.5944 16.321 53.2023 16.1412C52.8103 15.9615 52.3203 15.7908 51.7234 15.6291L50.0127 15.1618C48.7921 14.8294 47.8567 14.3352 47.2063 13.7062C46.5559 13.0682 46.2262 12.2505 46.2262 11.2621C46.2262 10.4265 46.449 9.68968 46.9033 9.04273C47.3488 8.40476 47.9725 7.90157 48.7565 7.55114C49.5405 7.19172 50.4226 7.021 51.4026 7.021C52.3827 7.021 53.238 7.20071 54.0042 7.55114C54.7615 7.90157 55.3674 8.38679 55.8039 9.00679C56.2405 9.62678 56.4632 10.3277 56.4811 11.1094H54.3428V11.0914Z" fill="black" fill-opacity="0.4"/>
</svg>
