<svg width="12" height="12" viewBox="0 0 12 12" fill="none" xmlns="http://www.w3.org/2000/svg">
<path d="M1.47072 3.73269C1.47072 3.67385 1.50014 3.6003 1.54427 3.55617C1.64724 3.4532 1.80905 3.4532 1.91202 3.54146L5.85431 7.24839C5.92785 7.32194 6.06025 7.32194 6.14851 7.24839L10.0908 3.54146C10.1938 3.43849 10.3556 3.4532 10.4585 3.55617C10.5615 3.65914 10.5468 3.82095 10.4438 3.92392L6.50155 7.63085C6.22206 7.88092 5.78076 7.88092 5.51598 7.63085L1.55898 3.92392C1.50014 3.86508 1.47072 3.80624 1.47072 3.73269Z" fill="#A6A7A7"/>
<path fill-rule="evenodd" clip-rule="evenodd" d="M2.22659 3.19111L6.00141 6.74057L9.76422 3.2024C10.0846 2.88907 10.542 2.97393 10.7914 3.22332C11.112 3.54396 11.0277 4.00575 10.7767 4.25677L10.7664 4.26701L6.81552 7.98175C6.36257 8.38702 5.6445 8.39893 5.19352 7.97378C5.19327 7.97354 5.19377 7.97401 5.19352 7.97378L1.22595 4.25695C1.10276 4.13375 1 3.96127 1 3.73269C1 3.55043 1.07801 3.35673 1.21142 3.22332C1.4947 2.94004 1.93557 2.94167 2.21836 3.18406L2.22659 3.19111ZM5.51598 7.63085C5.78076 7.88092 6.22206 7.88092 6.50155 7.63085L10.4438 3.92392C10.5468 3.82095 10.5615 3.65914 10.4585 3.55617C10.3556 3.4532 10.1938 3.43849 10.0908 3.54146L6.14851 7.24839C6.06025 7.32194 5.92785 7.32194 5.85431 7.24839L1.91202 3.54146C1.80905 3.4532 1.64724 3.4532 1.54427 3.55617C1.50014 3.6003 1.47072 3.67385 1.47072 3.73269C1.47072 3.80624 1.50014 3.86508 1.55898 3.92392L5.51598 7.63085Z" fill="#A6A7A7"/>
</svg>
