<svg width="64" height="20" viewBox="0 0 64 20" fill="none" xmlns="http://www.w3.org/2000/svg">
<path d="M20.4922 20H1.43073V11.5215H20.4922V20ZM42.088 16.7334H25.4932V17.3066H42.088V20H22.7549V14.2891H39.3497V13.7402H22.7549V11.1475H42.088V16.7334ZM47.6797 16.4736H62.2686V20H43.8799V13.7861H47.6797V16.4736ZM5.05182 17.0078H16.834V14.5137H5.05182V17.0078ZM62.2686 3.53418H59.2286V5.4082H62.2686V8.94141H55.1495V10.0801H63.2217V13.1807H42.9219V10.3994H21.9219V7.50586H42.9219V10.0801H51.0255V8.94141H43.8799V5.4082H46.919V3.53418H43.8799V0H62.2686V3.53418ZM20.4922 10.792H16.834V0H20.4922V10.792ZM13.4756 10.2744H0.493225V0H13.4756V10.2744ZM4.00104 7.28223H9.96686V2.99219H4.00104V7.28223ZM42.088 2.69336H38.9932V4.16504H42.088V6.85742H22.7549V4.16504H25.8497V2.69336H22.7549V0H42.088V2.69336ZM50.0479 5.81543H56.1387V3.06055H50.0479V5.81543ZM29.8497 4.16504H34.9932V2.69336H29.8497V4.16504Z" fill="white"/>
</svg>
